<svg width="26" height="14" viewBox="0 0 26 14" fill="none" xmlns="http://www.w3.org/2000/svg">
<path fill-rule="evenodd" clip-rule="evenodd" d="M3.3085 5.76256L7.36396 1.70711C7.75449 1.31658 7.75449 0.683418 7.36396 0.292893C6.97344 -0.0976311 6.34027 -0.0976311 5.94975 0.292893L0.292893 5.94975C0.0538216 6.18882 -0.0388949 6.51882 0.0147438 6.82843C-0.0388949 7.13803 0.0538216 7.46803 0.292893 7.70711L5.94975 13.364C6.34027 13.7545 6.97344 13.7545 7.36396 13.364C7.75449 12.9734 7.75449 12.3403 7.36396 11.9497L3.17678 7.76256H24.5126C25.0648 7.76256 25.5126 7.31485 25.5126 6.76256C25.5126 6.21028 25.0648 5.76256 24.5126 5.76256H3.3085Z" fill="#FFA010"/>
</svg>
