<svg width="20" height="20" viewBox="0 0 20 20" fill="none" xmlns="http://www.w3.org/2000/svg">
<path fill-rule="evenodd" clip-rule="evenodd" d="M20.3363 17.993L16.0233 13.68C16.0003 13.657 15.9733 13.641 15.9493 13.62C17.0603 11.9313 17.5052 9.89039 17.1979 7.89248C16.8906 5.89456 15.8529 4.08172 14.2858 2.80494C12.7186 1.52816 10.7335 0.878255 8.7147 0.981047C6.6959 1.08384 4.78705 1.93202 3.35769 3.36137C1.92834 4.79073 1.08016 6.69959 0.977366 8.71838C0.874574 10.7372 1.52448 12.7223 2.80126 14.2895C4.07804 15.8566 5.89088 16.8943 7.88879 17.2016C9.88671 17.5089 11.9276 17.064 13.6163 15.953C13.6383 15.977 13.6543 16.003 13.6773 16.026L17.9903 20.339C18.1437 20.4962 18.3267 20.6214 18.5288 20.7073C18.7309 20.7932 18.948 20.8382 19.1676 20.8395C19.3872 20.8409 19.6048 20.7986 19.808 20.7152C20.0111 20.6318 20.1957 20.5089 20.351 20.3536C20.5062 20.1984 20.6291 20.0138 20.7125 19.8107C20.7959 19.6075 20.8382 19.3898 20.8368 19.1703C20.8355 18.9507 20.7905 18.7335 20.7046 18.5314C20.6187 18.3294 20.4935 18.1463 20.3363 17.993ZM9.13132 14.467C7.71692 14.467 6.36045 13.9051 5.36032 12.905C4.36019 11.9049 3.79832 10.5484 3.79832 9.134C3.79832 7.7196 4.36019 6.36313 5.36032 5.363C6.36045 4.36287 7.71692 3.801 9.13132 3.801C10.5457 3.801 11.9022 4.36287 12.9023 5.363C13.9024 6.36313 14.4643 7.7196 14.4643 9.134C14.4643 10.5484 13.9024 11.9049 12.9023 12.905C11.9022 13.9051 10.5457 14.467 9.13132 14.467Z" fill="white"/>
</svg>
